<?xml version="1.0" standalone="no"?>
<!DOCTYPE svg PUBLIC "-//W3C//DTD SVG 20010904//EN"
 "http://www.w3.org/TR/2001/REC-SVG-20010904/DTD/svg10.dtd">
<svg version="1.0" xmlns="http://www.w3.org/2000/svg"
 width="602.000000pt" height="245.000000pt" viewBox="0 0 602.000000 245.000000"
 preserveAspectRatio="xMidYMid meet">

<g transform="translate(0.000000,245.000000) scale(0.100000,-0.100000)"
fill="#000000" stroke="none">
<path d="M2550 1485 l0 -275 -160 0 c-136 0 -160 -2 -160 -15 0 -13 24 -15
160 -15 l160 0 0 -330 0 -330 40 0 40 0 0 620 0 620 -40 0 -40 0 0 -275z"/>
<path d="M3950 1273 l0 -488 -33 -26 c-46 -37 -122 -74 -193 -94 -47 -14 -118
-18 -341 -22 l-283 -5 0 536 0 536 260 0 c224 0 260 2 260 15 0 13 -41 15
-305 15 l-305 0 2 -562 3 -563 345 0 c326 1 349 2 423 23 43 12 96 31 117 42
22 11 42 20 45 20 3 0 5 -40 5 -90 l0 -90 40 0 40 0 0 620 0 620 -40 0 -40 0
0 -487z"/>
<path d="M5350 1335 l0 -425 45 0 45 0 0 425 0 425 -45 0 -45 0 0 -425z"/>
<path d="M697 1744 c-4 -4 -7 -53 -7 -109 0 -176 -42 -280 -161 -396 -72 -70
-202 -143 -301 -169 -31 -8 -48 -18 -48 -28 0 -12 10 -14 53 -9 169 18 359
135 455 282 l51 77 22 -44 c31 -62 162 -188 239 -231 122 -67 290 -110 290
-73 0 8 -12 17 -27 21 -56 13 -171 64 -224 98 -106 68 -208 193 -240 294 -6
21 -14 94 -18 163 l-6 125 -35 3 c-20 2 -39 0 -43 -4z"/>
<path d="M4400 1435 l0 -315 305 0 305 0 0 315 0 315 -305 0 -305 0 0 -315z
m530 0 l0 -285 -225 0 -225 0 0 285 0 285 225 0 225 0 0 -285z"/>
<path d="M1612 1178 l3 -563 300 1 c243 1 313 4 368 17 83 21 127 42 127 63 0
20 -41 15 -122 -15 -77 -28 -201 -41 -410 -41 l-178 0 0 265 0 265 240 0 c207
0 240 2 240 15 0 13 -33 15 -240 15 l-240 0 0 255 0 255 255 0 c220 0 255 2
255 15 0 13 -40 15 -300 15 l-300 0 2 -562z"/>
<path d="M4480 701 l0 -191 490 0 c429 0 490 2 490 15 0 13 -56 15 -445 15
l-445 0 -2 173 -3 172 -42 3 -43 3 0 -190z"/>
<path d="M160 595 c0 -13 71 -15 575 -15 504 0 575 2 575 15 0 13 -71 15 -575
15 -504 0 -575 -2 -575 -15z"/>
</g>
</svg>
